<mxfile host="app.diagrams.net" modified="2022-09-25T17:17:04.062Z" agent="5.0 (Windows NT 10.0; Win64; x64) AppleWebKit/537.36 (KHTML, like Gecko) Chrome/91.0.4472.114 Safari/537.36" etag="GrSIRPx2xyG9nE6ADMf1" version="20.3.6" type="github">
  <diagram id="C5RBs43oDa-KdzZeNtuy" name="Page-1">
    <mxGraphModel dx="1330" dy="908" grid="1" gridSize="10" guides="1" tooltips="1" connect="1" arrows="1" fold="1" page="1" pageScale="1" pageWidth="827" pageHeight="1169" math="0" shadow="0">
      <root>
        <mxCell id="WIyWlLk6GJQsqaUBKTNV-0" />
        <mxCell id="WIyWlLk6GJQsqaUBKTNV-1" parent="WIyWlLk6GJQsqaUBKTNV-0" />
        <mxCell id="WIyWlLk6GJQsqaUBKTNV-3" value="Research" style="rounded=1;whiteSpace=wrap;html=1;fontSize=12;glass=0;strokeWidth=1;shadow=0;" parent="WIyWlLk6GJQsqaUBKTNV-1" vertex="1">
          <mxGeometry x="370" y="80" width="120" height="40" as="geometry" />
        </mxCell>
        <mxCell id="76yNWuopJ7qILAP6FvEZ-0" value="Start" style="ellipse;whiteSpace=wrap;html=1;" vertex="1" parent="WIyWlLk6GJQsqaUBKTNV-1">
          <mxGeometry x="130" y="30" width="60" height="30" as="geometry" />
        </mxCell>
        <mxCell id="76yNWuopJ7qILAP6FvEZ-2" value="Mechanical" style="shape=process;whiteSpace=wrap;html=1;backgroundOutline=1;" vertex="1" parent="WIyWlLk6GJQsqaUBKTNV-1">
          <mxGeometry x="150" y="154" width="120" height="20" as="geometry" />
        </mxCell>
        <mxCell id="76yNWuopJ7qILAP6FvEZ-32" style="edgeStyle=orthogonalEdgeStyle;rounded=0;orthogonalLoop=1;jettySize=auto;html=1;exitX=0.5;exitY=1;exitDx=0;exitDy=0;entryX=0.5;entryY=0;entryDx=0;entryDy=0;" edge="1" parent="WIyWlLk6GJQsqaUBKTNV-1" source="76yNWuopJ7qILAP6FvEZ-3" target="76yNWuopJ7qILAP6FvEZ-22">
          <mxGeometry relative="1" as="geometry" />
        </mxCell>
        <mxCell id="76yNWuopJ7qILAP6FvEZ-3" value="Electrical" style="shape=process;whiteSpace=wrap;html=1;backgroundOutline=1;" vertex="1" parent="WIyWlLk6GJQsqaUBKTNV-1">
          <mxGeometry x="370" y="154" width="120" height="20" as="geometry" />
        </mxCell>
        <mxCell id="76yNWuopJ7qILAP6FvEZ-34" style="edgeStyle=orthogonalEdgeStyle;rounded=0;orthogonalLoop=1;jettySize=auto;html=1;exitX=0.5;exitY=1;exitDx=0;exitDy=0;entryX=0.5;entryY=0;entryDx=0;entryDy=0;" edge="1" parent="WIyWlLk6GJQsqaUBKTNV-1" source="76yNWuopJ7qILAP6FvEZ-4" target="76yNWuopJ7qILAP6FvEZ-24">
          <mxGeometry relative="1" as="geometry">
            <Array as="points">
              <mxPoint x="650" y="190" />
              <mxPoint x="740" y="190" />
            </Array>
          </mxGeometry>
        </mxCell>
        <mxCell id="76yNWuopJ7qILAP6FvEZ-39" style="edgeStyle=orthogonalEdgeStyle;rounded=0;orthogonalLoop=1;jettySize=auto;html=1;exitX=0.5;exitY=1;exitDx=0;exitDy=0;entryX=0.5;entryY=0;entryDx=0;entryDy=0;" edge="1" parent="WIyWlLk6GJQsqaUBKTNV-1" source="76yNWuopJ7qILAP6FvEZ-4" target="76yNWuopJ7qILAP6FvEZ-29">
          <mxGeometry relative="1" as="geometry" />
        </mxCell>
        <mxCell id="76yNWuopJ7qILAP6FvEZ-40" style="edgeStyle=orthogonalEdgeStyle;rounded=0;orthogonalLoop=1;jettySize=auto;html=1;exitX=0.5;exitY=1;exitDx=0;exitDy=0;entryX=0.5;entryY=0;entryDx=0;entryDy=0;" edge="1" parent="WIyWlLk6GJQsqaUBKTNV-1" source="76yNWuopJ7qILAP6FvEZ-4" target="76yNWuopJ7qILAP6FvEZ-28">
          <mxGeometry relative="1" as="geometry">
            <Array as="points">
              <mxPoint x="650" y="300" />
              <mxPoint x="565" y="300" />
            </Array>
          </mxGeometry>
        </mxCell>
        <mxCell id="76yNWuopJ7qILAP6FvEZ-4" value="Software" style="shape=process;whiteSpace=wrap;html=1;backgroundOutline=1;" vertex="1" parent="WIyWlLk6GJQsqaUBKTNV-1">
          <mxGeometry x="590" y="154" width="120" height="20" as="geometry" />
        </mxCell>
        <mxCell id="76yNWuopJ7qILAP6FvEZ-6" value="" style="edgeStyle=segmentEdgeStyle;endArrow=classic;html=1;rounded=0;entryX=0.5;entryY=0;entryDx=0;entryDy=0;" edge="1" parent="WIyWlLk6GJQsqaUBKTNV-1" target="76yNWuopJ7qILAP6FvEZ-2">
          <mxGeometry width="50" height="50" relative="1" as="geometry">
            <mxPoint x="430" y="120" as="sourcePoint" />
            <mxPoint x="480" y="70" as="targetPoint" />
            <Array as="points">
              <mxPoint x="430" y="130" />
              <mxPoint x="210" y="130" />
            </Array>
          </mxGeometry>
        </mxCell>
        <mxCell id="76yNWuopJ7qILAP6FvEZ-9" value="" style="edgeStyle=segmentEdgeStyle;endArrow=classic;html=1;rounded=0;entryX=0.5;entryY=0;entryDx=0;entryDy=0;" edge="1" parent="WIyWlLk6GJQsqaUBKTNV-1" target="76yNWuopJ7qILAP6FvEZ-4">
          <mxGeometry width="50" height="50" relative="1" as="geometry">
            <mxPoint x="430" y="130" as="sourcePoint" />
            <mxPoint x="480" y="80" as="targetPoint" />
          </mxGeometry>
        </mxCell>
        <mxCell id="76yNWuopJ7qILAP6FvEZ-10" value="" style="edgeStyle=segmentEdgeStyle;endArrow=classic;html=1;rounded=0;entryX=0.5;entryY=0;entryDx=0;entryDy=0;" edge="1" parent="WIyWlLk6GJQsqaUBKTNV-1" target="76yNWuopJ7qILAP6FvEZ-3">
          <mxGeometry width="50" height="50" relative="1" as="geometry">
            <mxPoint x="430" y="130" as="sourcePoint" />
            <mxPoint x="480" y="80" as="targetPoint" />
          </mxGeometry>
        </mxCell>
        <mxCell id="76yNWuopJ7qILAP6FvEZ-11" value="Design finger joints" style="rounded=1;whiteSpace=wrap;html=1;" vertex="1" parent="WIyWlLk6GJQsqaUBKTNV-1">
          <mxGeometry x="150" y="210" width="120" height="30" as="geometry" />
        </mxCell>
        <mxCell id="76yNWuopJ7qILAP6FvEZ-14" value="Test finger agility" style="rhombus;whiteSpace=wrap;html=1;" vertex="1" parent="WIyWlLk6GJQsqaUBKTNV-1">
          <mxGeometry x="135" y="280" width="150" height="50" as="geometry" />
        </mxCell>
        <mxCell id="76yNWuopJ7qILAP6FvEZ-18" style="edgeStyle=orthogonalEdgeStyle;rounded=0;orthogonalLoop=1;jettySize=auto;html=1;exitX=0.5;exitY=0;exitDx=0;exitDy=0;entryX=0;entryY=0.5;entryDx=0;entryDy=0;" edge="1" parent="WIyWlLk6GJQsqaUBKTNV-1" source="76yNWuopJ7qILAP6FvEZ-15" target="76yNWuopJ7qILAP6FvEZ-11">
          <mxGeometry relative="1" as="geometry" />
        </mxCell>
        <mxCell id="76yNWuopJ7qILAP6FvEZ-15" value="Needs improvement" style="text;html=1;strokeColor=none;fillColor=none;align=center;verticalAlign=middle;whiteSpace=wrap;rounded=0;" vertex="1" parent="WIyWlLk6GJQsqaUBKTNV-1">
          <mxGeometry x="50" y="250" width="60" height="30" as="geometry" />
        </mxCell>
        <mxCell id="76yNWuopJ7qILAP6FvEZ-17" value="" style="edgeStyle=segmentEdgeStyle;endArrow=classic;html=1;rounded=0;exitX=0;exitY=0.5;exitDx=0;exitDy=0;entryX=0.5;entryY=1;entryDx=0;entryDy=0;" edge="1" parent="WIyWlLk6GJQsqaUBKTNV-1" source="76yNWuopJ7qILAP6FvEZ-14" target="76yNWuopJ7qILAP6FvEZ-15">
          <mxGeometry width="50" height="50" relative="1" as="geometry">
            <mxPoint x="50" y="350" as="sourcePoint" />
            <mxPoint x="100" y="300" as="targetPoint" />
          </mxGeometry>
        </mxCell>
        <mxCell id="76yNWuopJ7qILAP6FvEZ-20" value="Good" style="text;html=1;strokeColor=none;fillColor=none;align=center;verticalAlign=middle;whiteSpace=wrap;rounded=0;" vertex="1" parent="WIyWlLk6GJQsqaUBKTNV-1">
          <mxGeometry x="180" y="340" width="60" height="30" as="geometry" />
        </mxCell>
        <mxCell id="76yNWuopJ7qILAP6FvEZ-21" value="Create hand for fingers and servos" style="rounded=1;whiteSpace=wrap;html=1;" vertex="1" parent="WIyWlLk6GJQsqaUBKTNV-1">
          <mxGeometry x="150" y="380" width="120" height="30" as="geometry" />
        </mxCell>
        <mxCell id="76yNWuopJ7qILAP6FvEZ-41" style="edgeStyle=orthogonalEdgeStyle;rounded=0;orthogonalLoop=1;jettySize=auto;html=1;exitX=1;exitY=0.5;exitDx=0;exitDy=0;entryX=0;entryY=0.5;entryDx=0;entryDy=0;" edge="1" parent="WIyWlLk6GJQsqaUBKTNV-1" source="76yNWuopJ7qILAP6FvEZ-22" target="76yNWuopJ7qILAP6FvEZ-29">
          <mxGeometry relative="1" as="geometry" />
        </mxCell>
        <mxCell id="76yNWuopJ7qILAP6FvEZ-22" value="Create circuit for servos and LED debugging" style="rounded=1;whiteSpace=wrap;html=1;" vertex="1" parent="WIyWlLk6GJQsqaUBKTNV-1">
          <mxGeometry x="294" y="220" width="120" height="60" as="geometry" />
        </mxCell>
        <mxCell id="76yNWuopJ7qILAP6FvEZ-35" style="edgeStyle=orthogonalEdgeStyle;rounded=0;orthogonalLoop=1;jettySize=auto;html=1;exitX=0.5;exitY=1;exitDx=0;exitDy=0;entryX=0.5;entryY=0;entryDx=0;entryDy=0;" edge="1" parent="WIyWlLk6GJQsqaUBKTNV-1" source="76yNWuopJ7qILAP6FvEZ-24" target="76yNWuopJ7qILAP6FvEZ-26">
          <mxGeometry relative="1" as="geometry" />
        </mxCell>
        <mxCell id="76yNWuopJ7qILAP6FvEZ-24" value="Setup OpenCV on Raspberry Pi" style="rounded=1;whiteSpace=wrap;html=1;" vertex="1" parent="WIyWlLk6GJQsqaUBKTNV-1">
          <mxGeometry x="680" y="210" width="120" height="40" as="geometry" />
        </mxCell>
        <mxCell id="76yNWuopJ7qILAP6FvEZ-37" style="edgeStyle=orthogonalEdgeStyle;rounded=0;orthogonalLoop=1;jettySize=auto;html=1;exitX=0.5;exitY=1;exitDx=0;exitDy=0;entryX=0.5;entryY=0;entryDx=0;entryDy=0;" edge="1" parent="WIyWlLk6GJQsqaUBKTNV-1" source="76yNWuopJ7qILAP6FvEZ-25" target="76yNWuopJ7qILAP6FvEZ-27">
          <mxGeometry relative="1" as="geometry" />
        </mxCell>
        <mxCell id="76yNWuopJ7qILAP6FvEZ-25" value="Code CV algorithm for hand detection" style="rounded=1;whiteSpace=wrap;html=1;" vertex="1" parent="WIyWlLk6GJQsqaUBKTNV-1">
          <mxGeometry x="680" y="340" width="120" height="40" as="geometry" />
        </mxCell>
        <mxCell id="76yNWuopJ7qILAP6FvEZ-36" style="edgeStyle=orthogonalEdgeStyle;rounded=0;orthogonalLoop=1;jettySize=auto;html=1;exitX=0.5;exitY=1;exitDx=0;exitDy=0;entryX=0.5;entryY=0;entryDx=0;entryDy=0;" edge="1" parent="WIyWlLk6GJQsqaUBKTNV-1" source="76yNWuopJ7qILAP6FvEZ-26" target="76yNWuopJ7qILAP6FvEZ-25">
          <mxGeometry relative="1" as="geometry" />
        </mxCell>
        <mxCell id="76yNWuopJ7qILAP6FvEZ-26" value="Create mathematic model for hand position" style="rounded=1;whiteSpace=wrap;html=1;" vertex="1" parent="WIyWlLk6GJQsqaUBKTNV-1">
          <mxGeometry x="680" y="270" width="120" height="50" as="geometry" />
        </mxCell>
        <mxCell id="76yNWuopJ7qILAP6FvEZ-27" value="Train hand model using camera and/or outsourced datasets" style="rounded=1;whiteSpace=wrap;html=1;" vertex="1" parent="WIyWlLk6GJQsqaUBKTNV-1">
          <mxGeometry x="590" y="470" width="150" height="60" as="geometry" />
        </mxCell>
        <mxCell id="76yNWuopJ7qILAP6FvEZ-38" style="edgeStyle=orthogonalEdgeStyle;rounded=0;orthogonalLoop=1;jettySize=auto;html=1;exitX=0.5;exitY=1;exitDx=0;exitDy=0;entryX=0.5;entryY=0;entryDx=0;entryDy=0;" edge="1" parent="WIyWlLk6GJQsqaUBKTNV-1" source="76yNWuopJ7qILAP6FvEZ-28" target="76yNWuopJ7qILAP6FvEZ-27">
          <mxGeometry relative="1" as="geometry">
            <mxPoint x="690" y="420" as="targetPoint" />
            <Array as="points">
              <mxPoint x="565" y="430" />
              <mxPoint x="665" y="430" />
            </Array>
          </mxGeometry>
        </mxCell>
        <mxCell id="76yNWuopJ7qILAP6FvEZ-28" value="Setup camera module / webcam on Raspberry Pi." style="rounded=1;whiteSpace=wrap;html=1;" vertex="1" parent="WIyWlLk6GJQsqaUBKTNV-1">
          <mxGeometry x="490" y="335" width="150" height="50" as="geometry" />
        </mxCell>
        <mxCell id="76yNWuopJ7qILAP6FvEZ-29" value="Implement servos / dc motors on raspberry pi" style="rounded=1;whiteSpace=wrap;html=1;" vertex="1" parent="WIyWlLk6GJQsqaUBKTNV-1">
          <mxGeometry x="490" y="222.5" width="130" height="55" as="geometry" />
        </mxCell>
        <mxCell id="76yNWuopJ7qILAP6FvEZ-48" value="" style="endArrow=none;html=1;rounded=0;jumpStyle=gap;jumpSize=6;" edge="1" parent="WIyWlLk6GJQsqaUBKTNV-1">
          <mxGeometry width="50" height="50" relative="1" as="geometry">
            <mxPoint x="450" y="360" as="sourcePoint" />
            <mxPoint x="430" y="190" as="targetPoint" />
            <Array as="points">
              <mxPoint x="450" y="227" />
              <mxPoint x="430" y="207" />
            </Array>
          </mxGeometry>
        </mxCell>
        <mxCell id="76yNWuopJ7qILAP6FvEZ-52" value="" style="edgeStyle=segmentEdgeStyle;endArrow=classic;html=1;rounded=0;jumpStyle=gap;jumpSize=6;entryX=0;entryY=0.5;entryDx=0;entryDy=0;" edge="1" parent="WIyWlLk6GJQsqaUBKTNV-1">
          <mxGeometry width="50" height="50" relative="1" as="geometry">
            <mxPoint x="450" y="360" as="sourcePoint" />
            <mxPoint x="490" y="360" as="targetPoint" />
            <Array as="points">
              <mxPoint x="450" y="360" />
              <mxPoint x="450" y="360" />
            </Array>
          </mxGeometry>
        </mxCell>
      </root>
    </mxGraphModel>
  </diagram>
</mxfile>
